# xmcd
#
# Track frame offsets:
#	150
#	20773
#	42160
#	57293
#	74918
#	98871
#	118126
#	140210
#	168536
#	189241
#	210115
#
# Disc length: 3078 seconds
#
# Revision: 0
# Processed by: cddbd v1.5.1PL0 Copyright (c) Steve Scherf et al.
# Submitted via: EasyCDDAExtractor 8.0.2.1
#
DISCID=a50c040b
DTITLE=Kenny Lattimore and Chanté Moore - Things That Lovers Do
DYEAR=2002
DGENRE=R&B
TTITLE0=Things That Lovers Do
TTITLE1=You Don't Have To Cry
TTITLE2=With You I'm Born Again
TTITLE3=Love Saw It
TTITLE4=Loveable (From Hour Head To Your Toes)
TTITLE5=You're All I Need To Get By
TTITLE6=When I Said I Do
TTITLE7=Close The Door
TTITLE8=Here We Go
TTITLE9=Is It Still Good To You
TTITLE10=Make It Last Forever
EXTD=
EXTT0=
EXTT1=
EXTT2=
EXTT3=
EXTT4=
EXTT5=
EXTT6=
EXTT7=
EXTT8=
EXTT9=
EXTT10=
PLAYORDER=
